<mxfile host="app.diagrams.net" modified="2024-04-10T20:10:04.595Z" agent="Mozilla/5.0 (Windows NT 10.0; Win64; x64) AppleWebKit/537.36 (KHTML, like Gecko) Chrome/123.0.0.0 Safari/537.36" version="24.2.3" etag="JCz8Ob4nra79MvXCL7Ts" type="device">
  <diagram id="GU0QY2nyOInnuFDX2Tvh" name="Página-1">
    <mxGraphModel dx="1120" dy="529" grid="1" gridSize="10" guides="1" tooltips="1" connect="1" arrows="1" fold="1" page="1" pageScale="1" pageWidth="827" pageHeight="1169" math="0" shadow="0">
      <root>
        <mxCell id="0" />
        <mxCell id="1" parent="0" />
        <mxCell id="nZh075MJXRtPZdMPX4x--1" value="Produto" style="whiteSpace=wrap;html=1;align=center;fillColor=#FF6666;" vertex="1" parent="1">
          <mxGeometry x="710" y="190" width="100" height="40" as="geometry" />
        </mxCell>
        <mxCell id="nZh075MJXRtPZdMPX4x--2" value="Compra&amp;nbsp;" style="whiteSpace=wrap;html=1;align=center;fillColor=#FF6666;" vertex="1" parent="1">
          <mxGeometry x="400" y="180" width="100" height="40" as="geometry" />
        </mxCell>
        <mxCell id="nZh075MJXRtPZdMPX4x--17" style="edgeStyle=orthogonalEdgeStyle;rounded=0;orthogonalLoop=1;jettySize=auto;html=1;entryX=0;entryY=0.5;entryDx=0;entryDy=0;" edge="1" parent="1" source="nZh075MJXRtPZdMPX4x--3" target="nZh075MJXRtPZdMPX4x--16">
          <mxGeometry relative="1" as="geometry" />
        </mxCell>
        <mxCell id="nZh075MJXRtPZdMPX4x--28" style="rounded=0;orthogonalLoop=1;jettySize=auto;html=1;exitX=0.75;exitY=0;exitDx=0;exitDy=0;entryX=0.5;entryY=1;entryDx=0;entryDy=0;" edge="1" parent="1" source="nZh075MJXRtPZdMPX4x--3" target="nZh075MJXRtPZdMPX4x--4">
          <mxGeometry relative="1" as="geometry" />
        </mxCell>
        <mxCell id="nZh075MJXRtPZdMPX4x--29" style="rounded=0;orthogonalLoop=1;jettySize=auto;html=1;entryX=0.5;entryY=1;entryDx=0;entryDy=0;" edge="1" parent="1" source="nZh075MJXRtPZdMPX4x--3" target="nZh075MJXRtPZdMPX4x--6">
          <mxGeometry relative="1" as="geometry" />
        </mxCell>
        <mxCell id="nZh075MJXRtPZdMPX4x--30" style="rounded=0;orthogonalLoop=1;jettySize=auto;html=1;exitX=0.25;exitY=0;exitDx=0;exitDy=0;entryX=1;entryY=1;entryDx=0;entryDy=0;" edge="1" parent="1" source="nZh075MJXRtPZdMPX4x--3" target="nZh075MJXRtPZdMPX4x--7">
          <mxGeometry relative="1" as="geometry" />
        </mxCell>
        <mxCell id="nZh075MJXRtPZdMPX4x--31" style="rounded=0;orthogonalLoop=1;jettySize=auto;html=1;exitX=0;exitY=0.25;exitDx=0;exitDy=0;entryX=1;entryY=0.5;entryDx=0;entryDy=0;" edge="1" parent="1" source="nZh075MJXRtPZdMPX4x--3" target="nZh075MJXRtPZdMPX4x--8">
          <mxGeometry relative="1" as="geometry" />
        </mxCell>
        <mxCell id="nZh075MJXRtPZdMPX4x--32" style="rounded=0;orthogonalLoop=1;jettySize=auto;html=1;exitX=0;exitY=0.75;exitDx=0;exitDy=0;entryX=1;entryY=0;entryDx=0;entryDy=0;" edge="1" parent="1" source="nZh075MJXRtPZdMPX4x--3" target="nZh075MJXRtPZdMPX4x--9">
          <mxGeometry relative="1" as="geometry" />
        </mxCell>
        <mxCell id="nZh075MJXRtPZdMPX4x--3" value="Cliente" style="whiteSpace=wrap;html=1;align=center;fillColor=#FF6666;" vertex="1" parent="1">
          <mxGeometry x="110" y="180" width="100" height="40" as="geometry" />
        </mxCell>
        <mxCell id="nZh075MJXRtPZdMPX4x--4" value="cpf" style="ellipse;whiteSpace=wrap;html=1;align=center;fontStyle=4;fillColor=#6666FF;" vertex="1" parent="1">
          <mxGeometry x="180" y="80" width="60" height="40" as="geometry" />
        </mxCell>
        <mxCell id="nZh075MJXRtPZdMPX4x--6" value="RG" style="ellipse;whiteSpace=wrap;html=1;align=center;fillColor=#6666FF;" vertex="1" parent="1">
          <mxGeometry x="110" y="80" width="60" height="40" as="geometry" />
        </mxCell>
        <mxCell id="nZh075MJXRtPZdMPX4x--7" value="Nome" style="ellipse;whiteSpace=wrap;html=1;align=center;fillColor=#6666FF;" vertex="1" parent="1">
          <mxGeometry x="30" y="100" width="60" height="40" as="geometry" />
        </mxCell>
        <mxCell id="nZh075MJXRtPZdMPX4x--8" value="telefone" style="ellipse;shape=doubleEllipse;margin=3;whiteSpace=wrap;html=1;align=center;fillColor=#6666FF;" vertex="1" parent="1">
          <mxGeometry x="10" y="160" width="60" height="40" as="geometry" />
        </mxCell>
        <mxCell id="nZh075MJXRtPZdMPX4x--9" value="endereço" style="ellipse;whiteSpace=wrap;html=1;align=center;fillColor=#6666FF;" vertex="1" parent="1">
          <mxGeometry x="20" y="230" width="60" height="40" as="geometry" />
        </mxCell>
        <mxCell id="nZh075MJXRtPZdMPX4x--20" style="edgeStyle=orthogonalEdgeStyle;rounded=0;orthogonalLoop=1;jettySize=auto;html=1;" edge="1" parent="1" source="nZh075MJXRtPZdMPX4x--15" target="nZh075MJXRtPZdMPX4x--1">
          <mxGeometry relative="1" as="geometry" />
        </mxCell>
        <mxCell id="nZh075MJXRtPZdMPX4x--15" value="contem" style="shape=rhombus;perimeter=rhombusPerimeter;whiteSpace=wrap;html=1;align=center;fillColor=#66FF66;" vertex="1" parent="1">
          <mxGeometry x="560" y="180" width="120" height="60" as="geometry" />
        </mxCell>
        <mxCell id="nZh075MJXRtPZdMPX4x--18" style="edgeStyle=orthogonalEdgeStyle;rounded=0;orthogonalLoop=1;jettySize=auto;html=1;" edge="1" parent="1" source="nZh075MJXRtPZdMPX4x--16" target="nZh075MJXRtPZdMPX4x--2">
          <mxGeometry relative="1" as="geometry" />
        </mxCell>
        <mxCell id="nZh075MJXRtPZdMPX4x--16" value="Realiza" style="shape=rhombus;perimeter=rhombusPerimeter;whiteSpace=wrap;html=1;align=center;fillColor=#33FF33;" vertex="1" parent="1">
          <mxGeometry x="250" y="170" width="120" height="60" as="geometry" />
        </mxCell>
        <mxCell id="nZh075MJXRtPZdMPX4x--19" style="edgeStyle=orthogonalEdgeStyle;rounded=0;orthogonalLoop=1;jettySize=auto;html=1;entryX=0.075;entryY=0.45;entryDx=0;entryDy=0;entryPerimeter=0;" edge="1" parent="1" source="nZh075MJXRtPZdMPX4x--2" target="nZh075MJXRtPZdMPX4x--15">
          <mxGeometry relative="1" as="geometry" />
        </mxCell>
        <mxCell id="nZh075MJXRtPZdMPX4x--21" value="&lt;u&gt;codigo&lt;/u&gt;" style="ellipse;whiteSpace=wrap;html=1;align=center;fillColor=#6666FF;" vertex="1" parent="1">
          <mxGeometry x="354" y="90" width="60" height="40" as="geometry" />
        </mxCell>
        <mxCell id="nZh075MJXRtPZdMPX4x--22" value="nota fiscal" style="ellipse;whiteSpace=wrap;html=1;align=center;fillColor=#6666FF;" vertex="1" parent="1">
          <mxGeometry x="430" y="90" width="60" height="40" as="geometry" />
        </mxCell>
        <mxCell id="nZh075MJXRtPZdMPX4x--23" value="cliente" style="ellipse;whiteSpace=wrap;html=1;align=center;fillColor=#6666FF;" vertex="1" parent="1">
          <mxGeometry x="510" y="90" width="60" height="40" as="geometry" />
        </mxCell>
        <mxCell id="nZh075MJXRtPZdMPX4x--24" value="data" style="ellipse;whiteSpace=wrap;html=1;align=center;fillColor=#6666FF;" vertex="1" parent="1">
          <mxGeometry x="354" y="240" width="60" height="40" as="geometry" />
        </mxCell>
        <mxCell id="nZh075MJXRtPZdMPX4x--37" style="rounded=0;orthogonalLoop=1;jettySize=auto;html=1;exitX=0;exitY=0;exitDx=0;exitDy=0;entryX=0.75;entryY=1;entryDx=0;entryDy=0;" edge="1" parent="1" source="nZh075MJXRtPZdMPX4x--25" target="nZh075MJXRtPZdMPX4x--2">
          <mxGeometry relative="1" as="geometry" />
        </mxCell>
        <mxCell id="nZh075MJXRtPZdMPX4x--25" value="produtos comprados&amp;nbsp;" style="ellipse;whiteSpace=wrap;html=1;align=center;fillColor=#6666FF;" vertex="1" parent="1">
          <mxGeometry x="490" y="240" width="60" height="40" as="geometry" />
        </mxCell>
        <mxCell id="nZh075MJXRtPZdMPX4x--36" style="edgeStyle=orthogonalEdgeStyle;rounded=0;orthogonalLoop=1;jettySize=auto;html=1;exitX=0.5;exitY=0;exitDx=0;exitDy=0;entryX=0.5;entryY=1;entryDx=0;entryDy=0;" edge="1" parent="1" source="nZh075MJXRtPZdMPX4x--26" target="nZh075MJXRtPZdMPX4x--2">
          <mxGeometry relative="1" as="geometry" />
        </mxCell>
        <mxCell id="nZh075MJXRtPZdMPX4x--26" value="quantidade" style="ellipse;whiteSpace=wrap;html=1;align=center;fillColor=#6666FF;" vertex="1" parent="1">
          <mxGeometry x="420" y="240" width="60" height="40" as="geometry" />
        </mxCell>
        <mxCell id="nZh075MJXRtPZdMPX4x--35" style="rounded=0;orthogonalLoop=1;jettySize=auto;html=1;exitX=0.5;exitY=0;exitDx=0;exitDy=0;entryX=0.14;entryY=1.05;entryDx=0;entryDy=0;entryPerimeter=0;" edge="1" parent="1" source="nZh075MJXRtPZdMPX4x--24" target="nZh075MJXRtPZdMPX4x--2">
          <mxGeometry relative="1" as="geometry" />
        </mxCell>
        <mxCell id="nZh075MJXRtPZdMPX4x--38" style="edgeStyle=orthogonalEdgeStyle;rounded=0;orthogonalLoop=1;jettySize=auto;html=1;entryX=0.6;entryY=0.05;entryDx=0;entryDy=0;entryPerimeter=0;" edge="1" parent="1" source="nZh075MJXRtPZdMPX4x--22" target="nZh075MJXRtPZdMPX4x--2">
          <mxGeometry relative="1" as="geometry" />
        </mxCell>
        <mxCell id="nZh075MJXRtPZdMPX4x--40" style="rounded=0;orthogonalLoop=1;jettySize=auto;html=1;entryX=0.91;entryY=-0.025;entryDx=0;entryDy=0;entryPerimeter=0;" edge="1" parent="1" source="nZh075MJXRtPZdMPX4x--23" target="nZh075MJXRtPZdMPX4x--2">
          <mxGeometry relative="1" as="geometry" />
        </mxCell>
        <mxCell id="nZh075MJXRtPZdMPX4x--41" style="rounded=0;orthogonalLoop=1;jettySize=auto;html=1;entryX=0.12;entryY=0;entryDx=0;entryDy=0;entryPerimeter=0;" edge="1" parent="1" source="nZh075MJXRtPZdMPX4x--21" target="nZh075MJXRtPZdMPX4x--2">
          <mxGeometry relative="1" as="geometry" />
        </mxCell>
        <mxCell id="nZh075MJXRtPZdMPX4x--49" style="edgeStyle=orthogonalEdgeStyle;rounded=0;orthogonalLoop=1;jettySize=auto;html=1;" edge="1" parent="1" source="nZh075MJXRtPZdMPX4x--42" target="nZh075MJXRtPZdMPX4x--1">
          <mxGeometry relative="1" as="geometry" />
        </mxCell>
        <mxCell id="nZh075MJXRtPZdMPX4x--42" value="tipo" style="ellipse;whiteSpace=wrap;html=1;align=center;fillColor=#6666FF;" vertex="1" parent="1">
          <mxGeometry x="860" y="190" width="60" height="40" as="geometry" />
        </mxCell>
        <mxCell id="nZh075MJXRtPZdMPX4x--50" style="rounded=0;orthogonalLoop=1;jettySize=auto;html=1;" edge="1" parent="1" source="nZh075MJXRtPZdMPX4x--43" target="nZh075MJXRtPZdMPX4x--1">
          <mxGeometry relative="1" as="geometry" />
        </mxCell>
        <mxCell id="nZh075MJXRtPZdMPX4x--43" value="nome do produto" style="ellipse;whiteSpace=wrap;html=1;align=center;fillColor=#6666FF;" vertex="1" parent="1">
          <mxGeometry x="760" y="120" width="60" height="40" as="geometry" />
        </mxCell>
        <mxCell id="nZh075MJXRtPZdMPX4x--44" value="&lt;u&gt;codigo&lt;/u&gt;" style="ellipse;whiteSpace=wrap;html=1;align=center;fillColor=#6666FF;" vertex="1" parent="1">
          <mxGeometry x="690" y="120" width="60" height="40" as="geometry" />
        </mxCell>
        <mxCell id="nZh075MJXRtPZdMPX4x--48" style="rounded=0;orthogonalLoop=1;jettySize=auto;html=1;entryX=0.75;entryY=1;entryDx=0;entryDy=0;" edge="1" parent="1" source="nZh075MJXRtPZdMPX4x--45" target="nZh075MJXRtPZdMPX4x--1">
          <mxGeometry relative="1" as="geometry" />
        </mxCell>
        <mxCell id="nZh075MJXRtPZdMPX4x--45" value="preço" style="ellipse;whiteSpace=wrap;html=1;align=center;fillColor=#6666FF;" vertex="1" parent="1">
          <mxGeometry x="760" y="280" width="60" height="40" as="geometry" />
        </mxCell>
        <mxCell id="nZh075MJXRtPZdMPX4x--47" style="rounded=0;orthogonalLoop=1;jettySize=auto;html=1;" edge="1" parent="1" source="nZh075MJXRtPZdMPX4x--46" target="nZh075MJXRtPZdMPX4x--1">
          <mxGeometry relative="1" as="geometry" />
        </mxCell>
        <mxCell id="nZh075MJXRtPZdMPX4x--46" value="estoque" style="ellipse;whiteSpace=wrap;html=1;align=center;fillColor=#6666FF;" vertex="1" parent="1">
          <mxGeometry x="690" y="280" width="60" height="40" as="geometry" />
        </mxCell>
        <mxCell id="nZh075MJXRtPZdMPX4x--51" style="rounded=0;orthogonalLoop=1;jettySize=auto;html=1;entryX=0.14;entryY=-0.025;entryDx=0;entryDy=0;entryPerimeter=0;" edge="1" parent="1" source="nZh075MJXRtPZdMPX4x--44" target="nZh075MJXRtPZdMPX4x--1">
          <mxGeometry relative="1" as="geometry" />
        </mxCell>
      </root>
    </mxGraphModel>
  </diagram>
</mxfile>
